<svg width="131" height="47" viewBox="0 0 131 47" fill="none" xmlns="http://www.w3.org/2000/svg">
<g opacity="0.95">
<path d="M13.0601 41.1949C7.85872 41.1949 3.75901 40.0752 0.760986 37.8357L2.92823 32.1467C4.37307 33.1942 5.98044 34.0069 7.75036 34.5848C9.52028 35.1267 11.3263 35.3976 13.1685 35.3976C14.5772 35.3976 15.6608 35.1808 16.4193 34.7474C17.1779 34.3139 17.5572 33.6818 17.5572 32.851C17.5572 32.1647 17.2862 31.6229 16.7444 31.2256C16.2026 30.8283 15.2454 30.4851 13.8728 30.1962L9.37579 29.1667C6.73898 28.5888 4.78845 27.6677 3.52423 26.4035C2.29612 25.1393 1.68207 23.4596 1.68207 21.3646C1.68207 19.667 2.1697 18.1499 3.14496 16.8134C4.15634 15.4769 5.54699 14.4475 7.31691 13.7251C9.08683 12.9665 11.1277 12.5873 13.4394 12.5873C15.3899 12.5873 17.3043 12.8943 19.1826 13.5084C21.0609 14.0863 22.7405 14.9171 24.2214 16.0007L21.9458 21.473C20.5371 20.4977 19.0923 19.7573 17.6113 19.2516C16.1665 18.7459 14.7578 18.493 13.3852 18.493C12.0487 18.493 11.0012 18.7278 10.2427 19.1974C9.48416 19.667 9.10489 20.3171 9.10489 21.1479C9.10489 21.762 9.32161 22.2677 9.75506 22.665C10.2246 23.0262 11.0374 23.3332 12.1932 23.5861L16.7986 24.6155C19.616 25.2657 21.6569 26.2409 22.9211 27.5413C24.1853 28.8416 24.8174 30.5754 24.8174 32.7427C24.8174 35.3434 23.7699 37.4023 21.6749 38.9193C19.5799 40.4364 16.7083 41.1949 13.0601 41.1949Z" fill="black"/>
<path d="M3.22461 6.33624C3.22461 8.71466 4.16943 10.9957 5.85123 12.6775C7.53303 14.3593 9.81403 15.3041 12.1925 15.3041C14.5709 15.3041 16.8519 14.3593 18.5337 12.6775C20.2155 10.9957 21.1603 8.71466 21.1603 6.33624" stroke="black" stroke-width="1.79357" stroke-linecap="round" stroke-linejoin="round"/>
<path d="M12.1924 15.3041C12.1924 12.9257 13.1372 10.6447 14.819 8.96286C16.5008 7.28107 18.7818 6.33624 21.1602 6.33624" stroke="black" stroke-width="1.79357" stroke-linecap="round" stroke-linejoin="round"/>
<path d="M3.22461 6.33624C4.40228 6.33624 5.56843 6.5682 6.65645 7.01888C7.74448 7.46956 8.73309 8.13012 9.56583 8.96286C10.3986 9.7956 11.0591 10.7842 11.5098 11.8722C11.9605 12.9603 12.1925 14.1264 12.1925 15.3041" stroke="black" stroke-width="1.79357" stroke-linecap="round" stroke-linejoin="round"/>
<path d="M12.1924 1.85229C13.0961 2.71505 13.8034 3.76237 14.2661 4.92299C14.7288 6.08361 14.9361 7.33028 14.8738 8.57818" stroke="black" stroke-width="1.79357" stroke-linecap="round" stroke-linejoin="round"/>
<path d="M9.51131 8.57818C9.449 7.33028 9.65625 6.08361 10.1189 4.92299C10.5816 3.76237 11.2889 2.71505 12.1927 1.85229" stroke="black" stroke-width="1.79357" stroke-linecap="round" stroke-linejoin="round"/>
</g>
<path d="M41.2564 25.9094V39.5872H36.4638V37.7294C36.0689 38.3755 35.4945 38.8871 34.7406 39.2641C33.9867 39.6231 33.161 39.8026 32.2635 39.8026C31.0968 39.8026 30.0557 39.5154 29.1402 38.941C28.2248 38.3666 27.5068 37.5499 26.9863 36.4908C26.4837 35.4138 26.2324 34.1753 26.2324 32.7752C26.2324 31.3572 26.4926 30.1007 27.0132 29.0057C27.5337 27.9108 28.2517 27.0582 29.1672 26.4479C30.0826 25.8376 31.1147 25.5325 32.2635 25.5325C33.161 25.5325 33.9777 25.7299 34.7137 26.1248C35.4676 26.5017 36.0509 27.0133 36.4638 27.6595V25.9094H41.2564ZM33.7713 36.1677C34.6329 36.1677 35.297 35.8715 35.7637 35.2792C36.2304 34.6869 36.4638 33.8342 36.4638 32.7214C36.4638 31.5905 36.2304 30.7289 35.7637 30.1366C35.297 29.5263 34.6329 29.2211 33.7713 29.2211C32.9277 29.2211 32.2635 29.5353 31.7789 30.1635C31.2942 30.7738 31.0519 31.6444 31.0519 32.7752C31.0519 33.8701 31.2852 34.7138 31.7519 35.3061C32.2186 35.8805 32.8918 36.1677 33.7713 36.1677ZM53.1727 25.5325C54.3394 25.5325 55.3805 25.8376 56.2959 26.4479C57.2114 27.0582 57.9294 27.9108 58.4499 29.0057C58.9705 30.1007 59.2307 31.3572 59.2307 32.7752C59.2307 34.1753 58.9705 35.4138 58.4499 36.4908C57.9473 37.5499 57.2383 38.3666 56.3229 38.941C55.4074 39.5154 54.3574 39.8026 53.1727 39.8026C52.2752 39.8026 51.4585 39.632 50.7225 39.291C49.9866 38.932 49.4212 38.4384 49.0263 37.8101V45.4029H44.1529V29.8404C44.1529 28.3685 44.0811 27.0582 43.9375 25.9094H48.5147L48.7839 28.0365C49.125 27.2826 49.6904 26.6812 50.4802 26.2325C51.27 25.7658 52.1675 25.5325 53.1727 25.5325ZM51.6918 36.1677C52.5713 36.1677 53.2355 35.8805 53.6842 35.3061C54.133 34.7317 54.3574 33.8881 54.3574 32.7752C54.3574 31.6444 54.124 30.7738 53.6573 30.1635C53.2086 29.5353 52.5534 29.2211 51.6918 29.2211C50.8123 29.2211 50.1391 29.5173 49.6725 30.1097C49.2058 30.702 48.9724 31.5726 48.9724 32.7214C48.9724 33.8342 49.2058 34.6869 49.6725 35.2792C50.1391 35.8715 50.8123 36.1677 51.6918 36.1677ZM61.5067 25.9094H66.3801V39.5872H61.5067V25.9094ZM66.4609 19.2051V23.5939H61.3721V19.2051H66.4609ZM81.9173 33.2329H73.3283C73.4181 34.292 73.7232 35.0548 74.2438 35.5215C74.7643 35.9882 75.5272 36.2216 76.5324 36.2216C77.2145 36.2216 77.8966 36.1139 78.5787 35.8985C79.2608 35.6651 79.88 35.351 80.4365 34.9561L81.675 38.1871C80.9929 38.6897 80.1672 39.0846 79.1979 39.3718C78.2286 39.659 77.2594 39.8026 76.2901 39.8026C74.7284 39.8026 73.3732 39.5154 72.2244 38.941C71.0756 38.3666 70.1961 37.5499 69.5858 36.4908C68.9755 35.4138 68.6704 34.1484 68.6704 32.6944C68.6704 31.3123 68.9576 30.0827 69.532 29.0057C70.1243 27.9108 70.932 27.0582 71.9552 26.4479C72.9963 25.8376 74.181 25.5325 75.5093 25.5325C76.8016 25.5325 77.9325 25.8196 78.9018 26.394C79.8711 26.9684 80.616 27.7941 81.1365 28.8711C81.6571 29.9302 81.9173 31.1687 81.9173 32.5867V33.2329ZM75.6439 28.8711C74.4412 28.8711 73.6873 29.5712 73.3822 30.9712H77.744C77.5645 29.5712 76.8645 28.8711 75.6439 28.8711ZM93.3263 25.5325C94.9418 25.5325 96.1444 26.0261 96.9342 27.0133C97.7419 27.9826 98.1458 29.4545 98.1458 31.429V39.5872H93.2724V31.6444C93.2724 30.8007 93.1288 30.1994 92.8416 29.8404C92.5544 29.4635 92.1057 29.275 91.4954 29.275C90.7594 29.275 90.1671 29.5263 89.7184 30.0289C89.2696 30.5135 89.0452 31.1597 89.0452 31.9675V39.5872H84.1719V29.8404C84.1719 28.3685 84.1001 27.0582 83.9565 25.9094H88.5337L88.776 27.9288C89.2965 27.1569 89.9427 26.5646 90.7146 26.1517C91.4864 25.7389 92.357 25.5325 93.3263 25.5325ZM113.09 35.9792V39.5872H100.785V36.1677L106.978 29.4904H100.812V25.9094H112.82V29.1134L106.466 35.9792H113.09ZM129.366 25.9094V39.5872H124.574V37.7294C124.179 38.3755 123.605 38.8871 122.851 39.2641C122.097 39.6231 121.271 39.8026 120.374 39.8026C119.207 39.8026 118.166 39.5154 117.25 38.941C116.335 38.3666 115.617 37.5499 115.096 36.4908C114.594 35.4138 114.342 34.1753 114.342 32.7752C114.342 31.3572 114.603 30.1007 115.123 29.0057C115.644 27.9108 116.362 27.0582 117.277 26.4479C118.193 25.8376 119.225 25.5325 120.374 25.5325C121.271 25.5325 122.088 25.7299 122.824 26.1248C123.578 26.5017 124.161 27.0133 124.574 27.6595V25.9094H129.366ZM121.881 36.1677C122.743 36.1677 123.407 35.8715 123.874 35.2792C124.341 34.6869 124.574 33.8342 124.574 32.7214C124.574 31.5905 124.341 30.7289 123.874 30.1366C123.407 29.5263 122.743 29.2211 121.881 29.2211C121.038 29.2211 120.374 29.5353 119.889 30.1635C119.404 30.7738 119.162 31.6444 119.162 32.7752C119.162 33.8701 119.395 34.7138 119.862 35.3061C120.329 35.8805 121.002 36.1677 121.881 36.1677Z" fill="black"/>
</svg>
