<svg width="621" height="705" viewBox="0 0 621 705" fill="none" xmlns="http://www.w3.org/2000/svg">
<g opacity="0.95">
<g filter="url(#filter0_d)">
<path d="M313.926 555.921C242.486 555.921 186.177 540.542 145 509.783L174.767 431.645C194.611 446.032 216.688 457.195 240.998 465.133C265.307 472.574 290.113 476.295 315.415 476.295C334.763 476.295 349.647 473.319 360.065 467.365C370.483 461.412 375.693 452.73 375.693 441.319C375.693 431.893 371.972 424.452 364.53 418.994C357.088 413.537 343.941 408.824 325.089 404.855L263.323 390.716C227.107 382.778 200.317 370.127 182.953 352.763C166.085 335.399 157.651 312.33 157.651 283.555C157.651 260.238 164.348 239.401 177.743 221.045C191.635 202.689 210.735 188.55 235.044 178.628C259.354 168.209 287.384 163 319.136 163C345.926 163 372.22 167.217 398.018 175.651C423.815 183.589 446.885 194.999 467.225 209.883L435.97 285.044C416.622 271.649 396.777 261.478 376.437 254.533C356.592 247.587 337.244 244.114 318.391 244.114C300.035 244.114 285.648 247.339 275.23 253.789C264.811 260.238 259.602 269.168 259.602 280.579C259.602 289.013 262.579 295.958 268.532 301.416C274.982 306.377 286.144 310.594 302.02 314.066L365.274 328.206C403.971 337.136 432.001 350.531 449.365 368.391C466.729 386.251 475.411 410.064 475.411 439.831C475.411 475.551 461.024 503.83 432.249 524.666C403.475 545.503 364.034 555.921 313.926 555.921Z" fill="white"/>
</g>
<path d="M181.046 74.7411C181.046 107.408 194.023 138.738 217.122 161.837C240.221 184.936 271.55 197.913 304.218 197.913C336.885 197.913 368.214 184.936 391.313 161.837C414.412 138.738 427.389 107.408 427.389 74.7411" stroke="white" stroke-width="24.6344" stroke-linecap="round" stroke-linejoin="round"/>
<path d="M304.218 197.913C304.218 165.246 317.195 133.916 340.294 110.817C363.393 87.7181 394.722 74.7411 427.389 74.7411" stroke="white" stroke-width="24.6344" stroke-linecap="round" stroke-linejoin="round"/>
<path d="M181.046 74.7411C197.221 74.7411 213.238 77.927 228.182 84.117C243.126 90.307 256.704 99.3797 268.142 110.817C279.579 122.255 288.652 135.833 294.842 150.777C301.032 165.721 304.218 181.738 304.218 197.913" stroke="white" stroke-width="24.6344" stroke-linecap="round" stroke-linejoin="round"/>
<path d="M304.218 13.1552C316.631 25.005 326.345 39.3898 332.7 55.3307C339.055 71.2716 341.902 88.3944 341.046 105.534" stroke="white" stroke-width="24.6344" stroke-linecap="round" stroke-linejoin="round"/>
<path d="M267.391 105.534C266.535 88.3944 269.381 71.2716 275.736 55.3307C282.092 39.3898 291.806 25.005 304.219 13.1552" stroke="white" stroke-width="24.6344" stroke-linecap="round" stroke-linejoin="round"/>
</g>
<defs>
<filter id="filter0_d" x="0" y="22" width="620.411" height="682.921" filterUnits="userSpaceOnUse" color-interpolation-filters="sRGB">
<feFlood flood-opacity="0" result="BackgroundImageFix"/>
<feColorMatrix in="SourceAlpha" type="matrix" values="0 0 0 0 0 0 0 0 0 0 0 0 0 0 0 0 0 0 127 0"/>
<feOffset dy="4"/>
<feGaussianBlur stdDeviation="72.5"/>
<feColorMatrix type="matrix" values="0 0 0 0 0 0 0 0 0 0 0 0 0 0 0 0 0 0 0.25 0"/>
<feBlend mode="normal" in2="BackgroundImageFix" result="effect1_dropShadow"/>
<feBlend mode="normal" in="SourceGraphic" in2="effect1_dropShadow" result="shape"/>
</filter>
</defs>
</svg>
